# xmcd
#
# Track frame offsets: 
#        150
#        14301
#        28776
#        45147
#        60261
#        76679
#        93097
#        108355
#        125465
#        142268
#        158569
#
# Disc length: 2326 seconds
#
# Revision: 0
# Processed by: cddbd v1.5.2PL0 Copyright (c) Steve Scherf et al.
# Submitted via: ExactAudioCopy v1.0b1
#
DISCID=7609140b
DTITLE=Collective Soul - Blender
DYEAR=2000
DGENRE=
TTITLE0=Skin
TTITLE1=Vent
TTITLE2=Why, Pt. 2
TTITLE3=10 Yrs Later
TTITLE4=Boast
TTITLE5=Turn Around
TTITLE6=You Speak my Language
TTITLE7=Perfect Day
TTITLE8=After All
TTITLE9=Over Tokyo
TTITLE10=Happiness
EXTD=
EXTT0=
EXTT1=
EXTT2=
EXTT3=
EXTT4=
EXTT5=
EXTT6=
EXTT7=
EXTT8=
EXTT9=
EXTT10=
PLAYORDER=
